<svg width="18" height="18" viewBox="0 0 18 18" fill="none" xmlns="http://www.w3.org/2000/svg">
<path d="M2.53033 7.46967C2.23744 7.17678 1.76256 7.17678 1.46967 7.46967C1.17678 7.76256 1.17678 8.23744 1.46967 8.53033L2.53033 7.46967ZM5.5 11.5L4.96967 12.0303C5.26256 12.3232 5.73744 12.3232 6.03033 12.0303L5.5 11.5ZM13.0303 5.03033C13.3232 4.73744 13.3232 4.26256 13.0303 3.96967C12.7374 3.67678 12.2626 3.67678 11.9697 3.96967L13.0303 5.03033ZM9.5 11.5L8.96967 12.0303C9.26256 12.3232 9.73744 12.3232 10.0303 12.0303L9.5 11.5ZM17.0303 5.03033C17.3232 4.73744 17.3232 4.26256 17.0303 3.96967C16.7374 3.67678 16.2626 3.67678 15.9697 3.96967L17.0303 5.03033ZM1.46967 8.53033L4.96967 12.0303L6.03033 10.9697L2.53033 7.46967L1.46967 8.53033ZM6.03033 12.0303L13.0303 5.03033L11.9697 3.96967L4.96967 10.9697L6.03033 12.0303ZM7.96967 11.0303L8.96967 12.0303L10.0303 10.9697L9.03033 9.96967L7.96967 11.0303ZM10.0303 12.0303L17.0303 5.03033L15.9697 3.96967L8.96967 10.9697L10.0303 12.0303Z" fill="#3A73A8"/>
</svg>
